<?xml version="1.0" encoding="UTF-8" standalone="no"?>
<svg
   viewBox="0 0 124.1 24"
   version="1.1"
   id="svg1"
   sodipodi:docname="logo.svg"
   xml:space="preserve"
   inkscape:version="1.3.1 (91b66b0783, 2023-11-16)"
   width="124.1"
   height="24"
   inkscape:export-filename="logo-hq.png"
   inkscape:export-xdpi="768"
   inkscape:export-ydpi="768"
   xmlns:inkscape="http://www.inkscape.org/namespaces/inkscape"
   xmlns:sodipodi="http://sodipodi.sourceforge.net/DTD/sodipodi-0.dtd"
   xmlns="http://www.w3.org/2000/svg"
   xmlns:svg="http://www.w3.org/2000/svg"><defs
     id="defs1" /><sodipodi:namedview
     id="namedview1"
     pagecolor="#ffffff"
     bordercolor="#000000"
     borderopacity="0.25"
     inkscape:showpageshadow="2"
     inkscape:pageopacity="0.0"
     inkscape:pagecheckerboard="0"
     inkscape:deskcolor="#d1d1d1"
     inkscape:zoom="4"
     inkscape:cx="43.625"
     inkscape:cy="-28.75"
     inkscape:window-width="1920"
     inkscape:window-height="1010"
     inkscape:window-x="-6"
     inkscape:window-y="-6"
     inkscape:window-maximized="1"
     inkscape:current-layer="svg1"
     showguides="true" /><path
     d="M 6.5,20 Q 4.22,20 2.61,18.43 1,16.85 1,14.58 1,12.63 2.17,11.1 3.35,9.57 5.25,9.15 5.88,6.85 7.75,5.43 9.63,4 12,4 14.93,4 16.96,6.04 19,8.07 19,11 q 1.73,0.2 2.86,1.5 1.14,1.28 1.14,3 0,1.88 -1.31,3.19 Q 20.38,20 18.5,20 m -12,-2 h 12 q 1.05,0 1.77,-0.73 Q 21,16.55 21,15.5 21,14.45 20.27,13.73 19.55,13 18.5,13 H 17 V 11 Q 17,8.93 15.54,7.46 14.08,6 12,6 9.93,6 8.46,7.46 7,8.93 7,11 H 6.5 Q 5.05,11 4.03,12.03 3,13.05 3,14.5 3,15.95 4.03,17 5.05,18 6.5,18 M 12,12 Z"
     id="path1"
     style="fill:#0d48a0;fill-opacity:0.87" /><path
     d="m 14.902514,10.347313 c 0.129982,-0.129982 0.129982,-0.34662 0,-0.469935 L 14.122621,9.0974862 c -0.123316,-0.1299817 -0.339952,-0.1299817 -0.469934,0 L 13.03944,9.7074023 14.289267,10.957226 M 8.9999996,13.750172 V 15 h 1.2498264 l 3.686155,-3.689488 -1.249826,-1.249827 z"
     id="path1-0"
     style="stroke-width:0.333288;fill:#0d48a1;fill-opacity:0.87" /><text
     xml:space="preserve"
     style="font-weight:500;font-size:12px;font-family:Roboto;-inkscape-font-specification:'Roboto, Medium';fill:#0d48a0;fill-opacity:0.87"
     x="27.791016"
     y="16.441406"
     id="text1"><tspan
       sodipodi:role="line"
       id="tspan1"
       x="27.791016"
       y="16.441406"
       style="font-size:12px;fill:#0d48a0;fill-opacity:0.87">nx-serverless-cdk</tspan></text></svg>
